<svg xmlns="http://www.w3.org/2000/svg" xmlns:xlink="http://www.w3.org/1999/xlink" width="66" height="66" viewBox="0 0 66 66">
  <defs>
    <filter id="Rectangle_75" x="0" y="0" width="66" height="66" filterUnits="userSpaceOnUse">
      <feOffset dy="3" input="SourceAlpha"/>
      <feGaussianBlur stdDeviation="3" result="blur"/>
      <feFlood flood-opacity="0.102"/>
      <feComposite operator="in" in2="blur"/>
      <feComposite in="SourceGraphic"/>
    </filter>
  </defs>
  <g id="Group_288" data-name="Group 288" transform="translate(-1383 -1009)">
    <g transform="matrix(1, 0, 0, 1, 1383, 1009)" filter="url(#Rectangle_75)">
      <path id="Rectangle_75-2" data-name="Rectangle 75" d="M12,0H48a0,0,0,0,1,0,0V48a0,0,0,0,1,0,0H12A12,12,0,0,1,0,36V12A12,12,0,0,1,12,0Z" transform="translate(9 6)" fill="#ffda94"/>
    </g>
    <g id="Group_573" data-name="Group 573" transform="translate(1404 1027)">
      <path id="Path_22" data-name="Path 22" d="M0,0H24V24H0Z" fill="none"/>
      <path id="Path_23" data-name="Path 23" d="M6.455,19,2,22.5V4A1,1,0,0,1,3,3H21a1,1,0,0,1,1,1V18a1,1,0,0,1-1,1Zm-.692-2H20V5H4V18.385ZM11,10h2v2H11ZM7,10H9v2H7Zm8,0h2v2H15Z" fill="#1a1a1a"/>
    </g>
  </g>
</svg>
