<svg xmlns="http://www.w3.org/2000/svg" width="20" height="20" viewBox="0 0 20 20">
  <g id="Group_623" data-name="Group 623" opacity="0.4">
    <path id="Path_37" data-name="Path 37" d="M0,0H20V20H0Z" fill="none"/>
    <path id="Path_38" data-name="Path 38" d="M6.111,5.2V2.8A.789.789,0,0,1,6.889,2h9.333A.789.789,0,0,1,17,2.8V14a.789.789,0,0,1-.778.8H13.889v2.4a.791.791,0,0,1-.783.8H3.783a.768.768,0,0,1-.553-.233A.812.812,0,0,1,3,17.2L3,6a.791.791,0,0,1,.783-.8ZM4.558,6.8l0,9.6h7.778V6.8ZM7.667,5.2h6.222v8h1.556V3.6H7.667Z" fill="#1a1a1a"/>
  </g>
</svg>
