<svg xmlns="http://www.w3.org/2000/svg" xmlns:xlink="http://www.w3.org/1999/xlink" width="40" height="40" viewBox="0 0 40 40">
  <defs>
    <filter id="Rectangle_179" x="0" y="0" width="40" height="40" filterUnits="userSpaceOnUse">
      <feOffset dy="2" input="SourceAlpha"/>
      <feGaussianBlur stdDeviation="2" result="blur"/>
      <feFlood flood-opacity="0.2"/>
      <feComposite operator="in" in2="blur"/>
      <feComposite in="SourceGraphic"/>
    </filter>
  </defs>
  <g id="Group_632" data-name="Group 632" transform="translate(-630 -77)">
    <g id="Group_629" data-name="Group 629">
      <g transform="matrix(1, 0, 0, 1, 630, 77)" filter="url(#Rectangle_179)">
        <rect id="Rectangle_179-2" data-name="Rectangle 179" width="28" height="28" rx="14" transform="translate(6 4)" fill="#fff"/>
      </g>
      <g id="Group_631" data-name="Group 631" transform="translate(639.998 84.998)">
        <path id="Path_35" data-name="Path 35" d="M0,0H20V20H0Z" fill="none"/>
        <path id="Path_36" data-name="Path 36" d="M11.42,16.237,5.9,19.638l1.5-6.348L2.49,9.046l6.446-.521L11.42,2.5,13.9,8.525l6.447.521-4.912,4.244,1.5,6.348Zm0-2.221,2.645,1.63L13.346,12.6,15.7,10.571l-3.089-.25L11.42,7.434l-1.191,2.887-3.089.25L9.494,12.6l-.719,3.041,2.645-1.629Z" transform="translate(-1.418 -1.498)" fill="#ffda94"/>
      </g>
    </g>
  </g>
</svg>
